<?xml version="1.0" encoding="UTF-8" standalone="no"?>
<!-- Created with Inkscape (http://www.inkscape.org/) -->

<svg
   xmlns:dc="http://purl.org/dc/elements/1.1/"
   xmlns:cc="http://creativecommons.org/ns#"
   xmlns:rdf="http://www.w3.org/1999/02/22-rdf-syntax-ns#"
   xmlns:svg="http://www.w3.org/2000/svg"
   xmlns="http://www.w3.org/2000/svg"
   xmlns:sodipodi="http://sodipodi.sourceforge.net/DTD/sodipodi-0.dtd"
   xmlns:inkscape="http://www.inkscape.org/namespaces/inkscape"
   width="210mm"
   height="297mm"
   viewBox="0 0 744.09448819 1052.3622047"
   id="svg2"
   version="1.1"
   inkscape:version="0.91 r13725"
   sodipodi:docname="airport.svg">
  <defs
     id="defs4" />
  <sodipodi:namedview
     id="base"
     pagecolor="#ffffff"
     bordercolor="#666666"
     borderopacity="1.0"
     inkscape:pageopacity="0.0"
     inkscape:pageshadow="2"
     inkscape:zoom="0.7"
     inkscape:cx="-45.403016"
     inkscape:cy="552.71773"
     inkscape:document-units="px"
     inkscape:current-layer="layer1"
     showgrid="false"
     inkscape:window-width="1920"
     inkscape:window-height="1138"
     inkscape:window-x="-8"
     inkscape:window-y="-8"
     inkscape:window-maximized="1" />
  <metadata
     id="metadata7">
    <rdf:RDF>
      <cc:Work
         rdf:about="">
        <dc:format>image/svg+xml</dc:format>
        <dc:type
           rdf:resource="http://purl.org/dc/dcmitype/StillImage" />
        <dc:title></dc:title>
      </cc:Work>
    </rdf:RDF>
  </metadata>
  <g
     inkscape:label="Layer 1"
     inkscape:groupmode="layer"
     id="layer1">
    <g
       id="g4147"
       transform="translate(-92.857143,-172.85714)">
      <path
         style="fill-opacity:1"
         d="m 263.34729,648.19162 c 0.34503,-1.5125 12.21335,-45.95 26.37406,-98.75 l 25.74673,-96 -36.5446,-0.63652 c -44.8304,-0.78084 -70.25449,-2.61814 -88.58251,-6.40154 -3.03551,-0.62661 -3.05686,-0.59859 -27,35.42947 l -23.96209,36.05657 -15.21861,0.026 c -11.74478,0.0201 -15.12118,-0.25932 -14.79175,-1.22399 1.87704,-5.49659 22.56491,-78.02669 22.3227,-78.2617 -0.17179,-0.16668 -5.66905,-2.44425 -12.21614,-5.06127 -12.60688,-5.03925 -18.02789,-8.82262 -20.245156,-14.12929 -1.863663,-4.46037 -1.693002,-7.9599 0.621323,-12.74066 2.506413,-5.17755 7.533313,-8.4455 20.981863,-13.64011 5.791,-2.23682 10.67175,-4.20962 10.84613,-4.38399 0.17437,-0.17438 -4.03881,-15.32813 -9.36263,-33.67501 -5.32382,-18.34688 -10.49347,-36.17046 -11.48812,-39.60796 l -1.80844,-6.25 15.2725,0 15.27249,0 23.40692,35.11879 c 12.87381,19.31533 23.68436,35.55721 24.02346,36.09307 0.39054,0.61715 3.50621,0.41558 8.5,-0.54994 17.62857,-3.40835 36.97854,-4.72219 81.051,-5.50324 20.44215,-0.36227 37.4817,-0.97323 37.86567,-1.35768 0.38397,-0.38445 -11.05392,-44.58016 -25.41754,-98.2127 -14.36362,-53.63253 -26.11567,-97.75548 -26.11567,-98.051 0,-0.29551 12.97291,-0.5373 28.82869,-0.5373 l 28.82869,0 57.34707,99.34238 57.34707,99.34238 32.07424,0.64573 c 49.86149,1.00383 89.51542,3.41721 103.52846,6.30085 14.49043,2.98187 26.42371,10.52464 31.36276,19.82371 1.68176,3.16637 2.1484,5.78259 2.1484,12.04495 0,9.51147 -1.89528,13.87625 -8.78168,20.22391 -10.8463,9.99776 -22.78606,12.97815 -61.1837,15.2726 -26.38585,1.57668 -65.36342,2.9823 -83.00674,2.99341 l -16.00673,0.0101 -57.44132,99.5 -57.44132,99.5 -28.8814,0 -28.8814,0 0.62732,-2.75 z"
         id="path4163"
         inkscape:connector-curvature="0" />
      <path
         style="fill-opacity:1"
         d="m 262.91981,650.19162 c 0.0225,-0.4125 11.87448,-44.85 26.33772,-98.75 l 26.29679,-98 -35.58772,-0.64431 c -45.47211,-0.82327 -65.1018,-2.23959 -89.11731,-6.42997 l -3.52959,-0.61587 -23.97041,36.06907 -23.97041,36.06906 -14.75,0.026 c -11.70842,0.0207 -14.75,-0.25158 -14.75,-1.32019 0,-0.74042 4.95,-18.40045 11,-39.24451 6.05,-20.84407 11,-38.20044 11,-38.56972 0,-0.36929 -5.33253,-2.74584 -11.85008,-5.28124 -17.79292,-6.92164 -23.466347,-13.02424 -21.559224,-23.19008 1.38563,-7.38604 7.196334,-11.70617 24.659304,-18.33364 4.8125,-1.82642 8.75,-3.62237 8.75,-3.99101 0,-0.36864 -4.95,-17.71325 -11,-38.54359 -6.05,-20.83034 -11,-38.46434 -11,-39.18667 0,-1.02626 3.22412,-1.30765 14.75,-1.28732 l 14.75,0.026 23.96209,36.05657 c 23.94314,36.02806 23.96449,36.05608 27,35.42947 18.66617,-3.8532 41.71736,-5.5167 86.28791,-6.22701 32.10443,-0.51165 38.25,-0.83793 38.25,-2.03076 0,-0.78164 -11.7,-45.094 -26,-98.4719 -14.3,-53.37789 -26,-97.22119 -26,-97.42955 0,-0.20836 12.95238,-0.37883 28.78306,-0.37883 l 28.78305,0 57.43389,99.5 57.43389,99.5 15.53305,0.0134 c 29.13406,0.0251 90.59858,2.86974 110.03306,5.09245 11.30225,1.29263 22.7923,4.73617 29,8.69123 16.48888,10.5054 19.74164,29.37607 7.42493,43.07521 -7.50962,8.35251 -18.93219,12.91943 -37.58691,15.02784 -18.8484,2.1303 -83.08305,5.08088 -110.88996,5.09366 l -13.55195,0.006 -57.44132,99.5 -57.44132,99.5 -28.75673,0 c -15.81621,0 -28.73832,-0.3375 -28.71581,-0.75 z"
         id="path4161"
         inkscape:connector-curvature="0" />
      <path
         style="fill-opacity:1"
         d="m 263.5546,650.19162 c -0.24327,-0.4125 11.37405,-44.85 25.81627,-98.75 l 26.25858,-98 -18.62528,-0.21165 c -46.17489,-0.52471 -91.56832,-3.44116 -104.08162,-6.68707 l -5.18529,-1.34504 -24.17919,36.12188 -24.17919,36.12188 -14.75,0.27673 c -11.44453,0.21472 -14.74889,-0.009 -14.74506,-1 0.003,-0.7022 4.95272,-18.29073 11,-39.08561 6.04728,-20.79489 10.99506,-38.19055 10.99506,-38.65702 0,-0.46648 -5.45605,-3.01609 -12.12456,-5.66579 -14.16708,-5.62923 -19.52664,-9.7016 -20.8904,-15.87321 -2.407376,-10.89443 2.90689,-16.95086 21.07528,-24.01857 6.56682,-2.55456 11.93968,-5.05509 11.93968,-5.55673 0,-0.50163 -4.95,-17.95496 -11,-38.78516 -6.05,-20.83021 -11,-38.38195 -11,-39.00387 0,-0.79109 4.43081,-1.12296 14.75,-1.10476 l 14.75,0.026 23.90708,35.97399 c 14.84691,22.34078 24.51326,35.974 25.5066,35.974 0.87974,0 3.14468,-0.44314 5.0332,-0.98476 10.65299,-3.05524 58.51652,-6.01524 97.26712,-6.01524 l 24.92078,0 -0.71584,-2.25 c -2.95621,-9.29185 -52.06605,-194.41372 -51.73035,-195 0.23619,-0.4125 13.00848,-0.75 28.38285,-0.75 l 27.9534,0 3.30084,5.25 c 1.81546,2.8875 27.71823,47.59096 57.56172,99.34103 l 54.26089,94.09102 30.17585,0.67439 c 48.0972,1.07491 91.00342,3.59731 104.17586,6.12435 19.47488,3.73613 31.65724,12.92579 34.60667,26.10527 4.06934,18.18372 -9.21605,32.71827 -34.60667,37.86055 -12.06185,2.44285 -55.71883,5.00376 -105.20071,6.17107 l -29.2007,0.68886 -55.71077,96.59673 c -30.64093,53.1282 -56.56875,97.83423 -57.61739,99.34673 l -1.90662,2.75 -27.87289,0 c -15.33009,0 -28.07193,-0.3375 -28.3152,-0.75 z"
         id="path4159"
         inkscape:connector-curvature="0" />
      <path
         style="fill-opacity:1"
         d="m 263.37741,648.70668 c 0.24603,-0.69578 11.9431,-44.24006 25.99348,-96.76506 14.05038,-52.525 25.79289,-96.2875 26.09446,-97.25 0.5098,-1.62711 -0.87848,-1.75042 -19.76908,-1.75592 -41.08257,-0.012 -87.22673,-2.90252 -102.13052,-6.39762 l -5.81312,-1.36324 -24.18688,36.13339 -24.18687,36.13339 -14.75,0.27673 c -10.03754,0.18832 -14.75,-0.0672 -14.75,-0.79985 0,-0.59212 5.03082,-18.41515 11.17959,-39.60672 9.28619,-32.00458 10.93747,-38.68391 9.75,-39.43805 -0.78627,-0.49934 -4.57959,-2.1054 -8.42959,-3.569 -10.28491,-3.90987 -17.67308,-7.81205 -20.47006,-10.81157 -2.025518,-2.1722 -2.541367,-3.9108 -2.866242,-9.66028 l -0.396176,-7.01134 4.425228,-4.18996 c 3.33483,-3.15753 7.42915,-5.39008 16.61624,-9.06046 6.70505,-2.67878 12.19101,-5.30839 12.19101,-5.84358 0,-0.53518 -4.95,-18.02926 -11,-38.87573 -6.05,-20.84647 -11,-38.36639 -11,-38.93316 0,-0.67326 5.11334,-0.93456 14.75,-0.75376 l 14.75,0.27673 22.77709,34 c 12.52739,18.7 23.34964,34.85084 24.04943,35.89075 1.22519,1.82067 1.60407,1.83188 10.22291,0.30237 19.55568,-3.47038 56.23091,-5.64526 95.70057,-5.67514 13.0625,-0.01 23.73662,-0.13048 23.72027,-0.26798 -0.0164,-0.1375 -11.87407,-44.35 -26.35047,-98.25 -14.47641,-53.9 -26.13647,-98.3375 -25.91125,-98.75 0.22522,-0.4125 12.95228,-0.75 28.28237,-0.75 l 27.87289,0 1.89651,2.75 c 1.04308,1.5125 27.00068,46.2875 57.68355,99.5 l 55.78704,96.75 12.13454,0.01 c 27.02285,0.0221 91.78827,2.95035 111.59979,5.04575 18.14791,1.91944 30.8983,6.81799 38.10951,14.64123 5.55806,6.02979 7.26666,10.42495 7.30961,18.80308 0.0958,18.68762 -15.64636,30.1565 -45.88436,33.42886 -14.22845,1.5398 -45.88654,3.159 -86.2893,4.4134 l -37.28929,1.15768 -56.87743,98.5 -56.87743,98.5 -29.05767,0.26506 c -23.08893,0.21062 -28.96579,0.005 -28.61035,-1 z"
         id="path4157"
         inkscape:connector-curvature="0" />
      <path
         style="fill-opacity:1"
         d="m 264.44822,645.19162 c 0.74267,-2.6125 12.41282,-46.15 25.93366,-96.75 13.52085,-50.6 24.81925,-92.7875 25.10757,-93.75 0.48653,-1.62422 -0.86418,-1.75043 -18.79318,-1.75592 -39.80991,-0.0122 -88.7711,-3.0716 -103.33448,-6.45697 -3.28153,-0.76282 -6.02153,-1.30823 -6.0889,-1.21202 -0.0674,0.0962 -10.98667,16.48741 -24.26513,36.42491 l -24.14264,36.25 -14.49312,0 c -8.34452,0 -14.49312,-0.39747 -14.49312,-0.93689 0,-0.51528 4.98608,-18.09672 11.08018,-39.06986 6.0941,-20.97314 10.87164,-38.66404 10.61676,-39.31312 -0.25488,-0.64907 -4.90346,-2.87309 -10.33018,-4.94227 -18.13143,-6.91341 -22.369913,-10.72975 -22.363022,-20.13574 0.0067,-9.07606 3.606542,-12.8071 17.996262,-18.65185 13.30852,-5.4056 15,-6.23529 15,-7.35763 0,-0.60699 -4.95,-18.15785 -11,-39.00192 -6.05,-20.84406 -11,-38.29112 -11,-38.77124 0,-0.48012 6.6375,-0.74842 14.75,-0.59621 l 14.75,0.27673 24.20857,36.16589 24.20857,36.16588 5.29143,-1.33913 c 13.55954,-3.43159 40.02451,-5.32369 86.0577,-6.15266 32.9345,-0.59308 36.71725,-0.82769 36.29591,-2.25103 -0.2587,-0.87392 -11.76052,-43.88895 -25.55961,-95.58895 -13.79908,-51.7 -25.49868,-95.24426 -25.99912,-96.76503 l -0.90989,-2.76503 29.02079,0.26503 29.0208,0.26503 56.87377,98.5 56.87378,98.5 37.80865,1.17303 c 60.04462,1.86292 89.74953,3.89423 101.72869,6.95649 7.3817,1.88701 16.37064,6.36978 21.10089,10.523 9.03356,7.93157 11.64009,22.26899 5.94933,32.72478 -6.71481,12.33733 -20.31633,18.74816 -44.64861,21.04432 -19.39535,1.83027 -42.89681,3.02092 -82.82165,4.19598 -21.175,0.62322 -38.79374,1.41421 -39.15275,1.75776 -0.35901,0.34355 -26.16716,44.83714 -57.35143,98.87464 l -56.69868,98.25 -28.78906,0 -28.78905,0 1.35031,-4.75 z"
         id="path4155"
         inkscape:connector-curvature="0" />
      <path
         style="fill-opacity:1"
         d="m 263.87888,648.79637 c 0,-0.85009 48.6622,-183.79409 51.63091,-194.10475 0.46516,-1.61558 -0.74951,-1.75048 -15.81352,-1.75623 -39.5267,-0.0151 -90.02754,-3.06824 -105.81739,-6.39744 -3.575,-0.75377 -6.725,-1.02476 -7,-0.6022 -0.275,0.42256 -11.03311,16.57175 -23.90692,35.88708 l -23.40692,35.11879 -14.91047,0 c -13.73427,0 -14.86895,-0.13805 -14.38416,-1.75 8.52829,-28.35736 21.68785,-75.60075 21.32317,-76.55109 -0.26964,-0.70267 -5.03153,-2.99741 -10.58197,-5.09941 -17.70368,-6.70452 -22.13273,-10.78723 -22.13273,-20.40196 0,-5.83546 2.78201,-10.58208 7.98226,-13.61919 1.9115,-1.11637 8.20997,-3.9053 13.9966,-6.19761 5.78663,-2.29232 10.65072,-4.80812 10.8091,-5.59069 0.15839,-0.78256 -4.43527,-17.66452 -10.20811,-37.51547 -5.77284,-19.85094 -10.78871,-37.25856 -11.14637,-38.6836 l -0.6503,-2.59098 14.60153,0 14.60153,0 24.14264,36.25 c 13.27846,19.9375 24.19777,36.32871 24.26513,36.42491 0.0674,0.0962 2.81877,-0.46138 6.11424,-1.23908 14.5567,-3.43526 62.34114,-6.40628 103.35838,-6.42635 17.95816,-0.009 19.3317,-0.13675 18.88633,-1.75948 -6.78297,-24.71413 -51.75296,-193.46337 -51.75296,-194.20225 0,-0.70573 9.26603,-1.04775 28.38529,-1.04775 l 28.3853,0 56.69548,98.25 c 31.18252,54.0375 56.99664,98.53738 57.36471,98.88862 0.36807,0.35125 18.14768,1.15416 39.51024,1.78425 58.20845,1.71688 87.90133,3.6996 99.24151,6.62679 8.03043,2.07285 17.24507,6.48206 21.67475,10.37137 12.12687,10.64753 11.83903,31.38199 -0.57537,41.44724 -13.2177,10.71654 -28.27012,13.24279 -93.18191,15.63878 -17.05,0.62934 -39.04641,1.44771 -48.88091,1.8186 l -17.8809,0.67435 -57.01169,98.75 -57.01169,98.75 -28.3574,0 c -20.636,0 -28.35741,-0.31184 -28.35741,-1.14525 z"
         id="path4153"
         inkscape:connector-curvature="0" />
      <path
         style="fill-opacity:1"
         d="m 263.87888,648.9547 c 0,-0.54281 11.7,-44.64869 26,-98.01308 14.3,-53.36439 26,-97.24527 26,-97.51308 0,-0.2678 -6.6375,-0.49139 -14.75,-0.49686 -40.23678,-0.0271 -92.88632,-3.24725 -107.17482,-6.55502 -3.70988,-0.85884 -6.66787,-1.10392 -7,-0.57998 -0.31635,0.49905 -11.10829,16.71082 -23.9821,36.02615 l -23.40692,35.11879 -14.91047,0 c -13.74298,0 -14.86747,-0.13702 -14.3613,-1.75 0.30204,-0.9625 4.85782,-16.6 10.12395,-34.75 5.26613,-18.15 10.19369,-35.116 10.95013,-37.70223 l 1.37536,-4.70223 -10.68192,-4.11366 c -18.93806,-7.29315 -23.170941,-10.99704 -23.178172,-20.28154 -0.0075,-9.58423 4.089962,-13.29154 22.788742,-20.61902 6.28058,-2.46117 10.88784,-4.81575 10.67513,-5.45561 -0.20583,-0.61914 -5.18251,-17.77571 -11.05929,-38.12571 -5.87678,-20.35 -10.89594,-37.5625 -11.15368,-38.25 -0.36183,-0.96516 2.9381,-1.25 14.48129,-1.25 l 14.94991,0 23.90708,35.97933 c 14.54649,21.89197 24.39766,35.8035 25.16004,35.53025 10.48875,-3.75937 63.87426,-7.42564 108.99704,-7.48541 10.0375,-0.0133 18.25,-0.25924 18.25,-0.54656 0,-0.28731 -11.7,-44.20398 -26,-97.59259 -14.3,-53.38862 -26,-97.47855 -26,-97.97762 0,-0.52186 12.04179,-0.9074 28.3411,-0.9074 l 28.34109,0 57.00897,98.75 57.00896,98.75 17.89994,0.67336 c 9.84497,0.37035 31.62494,1.1758 48.39994,1.78989 65.38076,2.39342 80.40347,4.90321 93.65521,15.6466 9.43527,7.64933 12.32589,22.45529 6.54461,33.52193 -5.06576,9.69697 -17.07058,16.52436 -33.96865,19.31869 -11.52728,1.90619 -32.03586,3.26381 -69.23117,4.58294 -16.775,0.59492 -37.89373,1.39328 -46.93051,1.77413 l -16.43051,0.69246 -57.0097,98.75 -57.00969,98.75 -28.3098,0 c -17.95644,0 -28.30979,-0.36093 -28.30979,-0.98692 z"
         id="path4151"
         inkscape:connector-curvature="0" />
      <path
         style="fill-opacity:1"
         d="m 264.32318,647.19162 c 0.36361,-1.5125 12.11239,-45.5612 26.10841,-97.886 13.99601,-52.3248 25.44729,-95.4123 25.44729,-95.75 0,-0.3377 -5.7375,-0.62107 -12.75,-0.62971 -18.6607,-0.023 -66.80044,-1.80924 -81.25,-3.01481 -11.22713,-0.93671 -27.18051,-3.12565 -32.5,-4.45929 -1.69085,-0.4239 -5.70981,5.06239 -26,35.4927 l -24,35.99412 -14.85699,10e-4 c -12.88493,0.001 -14.77954,-0.20033 -14.2735,-1.51903 0.32091,-0.8363 5.31726,-17.8948 11.10298,-37.90778 5.78572,-20.01298 10.77246,-37.04645 11.08164,-37.85216 0.42216,-1.10013 -2.37823,-2.63873 -11.24599,-6.1788 -6.49448,-2.59263 -13.317,-5.64027 -15.16116,-6.77253 -4.78591,-2.93841 -7.139504,-7.31238 -7.139504,-13.2682 0,-9.52424 4.100324,-13.13622 23.310954,-20.5346 6.60477,-2.54363 10.64409,-4.6207 10.37082,-5.33281 -0.24617,-0.64153 -5.24893,-17.8088 -11.11722,-38.1495 -5.8683,-20.34021 -10.85855,-37.5451 -11.08945,-38.2326 -0.3233,-0.96263 2.98526,-1.25 14.39173,-1.25 l 14.81153,0 23.90708,36.01124 c 20.28698,30.55828 24.20993,35.93259 25.90708,35.49185 5.37939,-1.39698 20.23903,-3.54509 31,-4.48136 15.60976,-1.35814 58.55861,-2.98467 79.35841,-3.00542 l 16.35841,-0.0163 -0.67762,-2.75 c -0.37268,-1.5125 -11.8701,-44.6 -25.54981,-95.75 -13.67971,-51.15 -25.17235,-94.2375 -25.5392,-95.75 l -0.66701,-2.75 28.41249,0 28.41248,0 56.99652,98.75 56.99652,98.75 16.44941,0.68557 c 9.04717,0.37706 30.1744,1.17018 46.9494,1.7625 36.92206,1.30369 57.60066,2.67808 69.23117,4.60141 16.97811,2.80766 28.87424,9.602 34.06272,19.45455 2.64819,5.02873 2.85869,6.17609 2.47603,13.49597 -0.48016,9.18506 -2.03052,12.81419 -7.91296,18.52291 -12.90654,12.52537 -35.33185,15.7305 -125.02887,17.86972 -19.00855,0.45335 -34.99892,1.09492 -35.53416,1.42571 -0.53524,0.3308 -26.57203,44.9445 -57.85953,99.14155 l -56.88637,98.54011 -28.38242,0 -28.38243,0 0.66112,-2.75 z"
         id="path4149"
         inkscape:connector-curvature="0" />
    </g>
  </g>
</svg>
